<svg xmlns="http://www.w3.org/2000/svg" width="16" height="16" viewBox="0 0 16 16" fill="none">
  <path fill-rule="evenodd" clip-rule="evenodd" d="M1.5 8C1.5 6.80653 1.97411 5.66193 2.81802 4.81802C3.66193 3.97411 4.80653 3.5 6 3.5H11.3333C12.1732 3.5 12.9786 3.83363 13.5725 4.4275C14.1664 5.02136 14.5 5.82681 14.5 6.66667C14.5 7.50652 14.1664 8.31197 13.5725 8.90584C12.9786 9.4997 12.1732 9.83333 11.3333 9.83333H5.90467C5.41844 9.83333 4.95212 9.64018 4.6083 9.29636C4.26449 8.95255 4.07133 8.48623 4.07133 8C4.07133 7.51377 4.26449 7.04745 4.6083 6.70364C4.95212 6.35982 5.41844 6.16667 5.90467 6.16667H11.1427C11.2753 6.16667 11.4025 6.21935 11.4962 6.31311C11.59 6.40688 11.6427 6.53406 11.6427 6.66667C11.6427 6.79928 11.59 6.92645 11.4962 7.02022C11.4025 7.11399 11.2753 7.16667 11.1427 7.16667H5.90467C5.68365 7.16667 5.47169 7.25446 5.31541 7.41074C5.15913 7.56702 5.07133 7.77899 5.07133 8C5.07133 8.22101 5.15913 8.43298 5.31541 8.58926C5.47169 8.74554 5.68365 8.83333 5.90467 8.83333H11.3333C11.908 8.83333 12.4591 8.60506 12.8654 8.19873C13.2717 7.7924 13.5 7.2413 13.5 6.66667C13.5 6.09203 13.2717 5.54093 12.8654 5.1346C12.4591 4.72827 11.908 4.5 11.3333 4.5H6C5.07174 4.5 4.1815 4.86875 3.52513 5.52513C2.86875 6.1815 2.5 7.07174 2.5 8C2.5 8.92826 2.86875 9.8185 3.52513 10.4749C4.1815 11.1313 5.07174 11.5 6 11.5H11.1427C11.2753 11.5 11.4025 11.5527 11.4962 11.6464C11.59 11.7402 11.6427 11.8674 11.6427 12C11.6427 12.1326 11.59 12.2598 11.4962 12.3536C11.4025 12.4473 11.2753 12.5 11.1427 12.5H6C4.80653 12.5 3.66193 12.0259 2.81802 11.182C1.97411 10.3381 1.5 9.19347 1.5 8Z" fill="white"/>
</svg>