<svg xmlns="http://www.w3.org/2000/svg" width="16" height="16" viewBox="0 0 16 16" fill="none">
  <path d="M3.90396 4.55992C3.8278 4.51884 3.74228 4.49824 3.65577 4.50012C3.56926 4.502 3.48471 4.5263 3.41041 4.57064C3.3361 4.61498 3.27457 4.67785 3.23184 4.75309C3.18911 4.82834 3.16664 4.91339 3.16663 4.99992V11.3333C3.16663 11.4659 3.2193 11.593 3.31307 11.6868C3.40684 11.7806 3.53402 11.8333 3.66663 11.8333C3.79923 11.8333 3.92641 11.7806 4.02018 11.6868C4.11395 11.593 4.16663 11.4659 4.16663 11.3333V5.83725L7.76263 7.77325C7.91063 7.85325 8.08929 7.85325 8.23729 7.77325L11.8333 5.83725V11.3333C11.8333 11.4659 11.886 11.593 11.9797 11.6868C12.0735 11.7806 12.2007 11.8333 12.3333 11.8333C12.4659 11.8333 12.5931 11.7806 12.6868 11.6868C12.7806 11.593 12.8333 11.4659 12.8333 11.3333V4.99992C12.8333 4.91339 12.8108 4.82834 12.7681 4.75309C12.7253 4.67785 12.6638 4.61498 12.5895 4.57064C12.5152 4.5263 12.4307 4.502 12.3442 4.50012C12.2576 4.49824 12.1721 4.51884 12.096 4.55992L7.99996 6.76525L3.90396 4.55992Z" fill="white"/>
  <path fill-rule="evenodd" clip-rule="evenodd" d="M11.54 2.48125C9.18472 2.27057 6.81531 2.27057 4.46002 2.48125L3.44802 2.57125C2.92088 2.61832 2.42499 2.84171 2.04044 3.20533C1.6559 3.56894 1.40515 4.05157 1.32868 4.57525C0.996559 6.84629 0.996559 9.15355 1.32868 11.4246C1.40531 11.9483 1.65622 12.4308 2.04089 12.7943C2.42556 13.1578 2.92152 13.381 3.44868 13.4279L4.45935 13.5186C6.81535 13.7293 9.18468 13.7293 11.5407 13.5186L12.552 13.4279C13.0791 13.3809 13.5749 13.1576 13.9594 12.7941C14.3439 12.4306 14.5947 11.9481 14.6713 11.4246C15.0035 9.15355 15.0035 6.84629 14.6713 4.57525C14.5949 4.05146 14.344 3.56876 13.9593 3.20513C13.5746 2.8415 13.0786 2.61818 12.5513 2.57125L11.54 2.48125ZM4.54935 3.47725C6.84564 3.27147 9.15573 3.27147 11.452 3.47725L12.4633 3.56792C12.7665 3.59485 13.0518 3.72319 13.273 3.93222C13.4943 4.14125 13.6386 4.41876 13.6827 4.71992C14.0008 6.89502 14.0008 9.10482 13.6827 11.2799C13.6386 11.5811 13.4943 11.8586 13.273 12.0676C13.0518 12.2766 12.7665 12.405 12.4633 12.4319L11.452 12.5226C9.15602 12.7279 6.84535 12.7279 4.54935 12.5226L3.53802 12.4319C3.23484 12.405 2.94959 12.2766 2.72834 12.0676C2.50709 11.8586 2.36277 11.5811 2.31868 11.2799C2.00058 9.10482 2.00058 6.89502 2.31868 4.71992C2.36277 4.41876 2.50709 4.14125 2.72834 3.93222C2.94959 3.72319 3.23484 3.59485 3.53802 3.56792L4.54935 3.47725Z" fill="white"/>
</svg>